<svg width="82" height="21" viewBox="0 0 82 21" fill="none" xmlns="http://www.w3.org/2000/svg">
<path d="M12.488 20.088C11.896 20.088 11.232 19.968 10.496 19.728C9.76 19.488 9 19.2 8.216 18.864C7.448 18.528 6.696 18.208 5.96 17.904C5.56 18.336 5.128 18.672 4.664 18.912C4.2 19.152 3.704 19.272 3.176 19.272C2.616 19.272 2.136 19.144 1.736 18.888C1.32 18.648 1.008 18.352 0.8 18C0.576 17.648 0.464 17.328 0.464 17.04C0.464 16.72 0.608 16.44 0.896 16.2C1.184 15.96 1.696 15.84 2.432 15.84C2.864 15.84 3.336 15.888 3.848 15.984C4.376 16.064 4.912 16.176 5.456 16.32C5.824 15.68 6.16 14.928 6.464 14.064C6.784 13.2 7.096 12.296 7.4 11.352C7.704 10.392 8.008 9.456 8.312 8.544C7.512 8.272 6.896 7.896 6.464 7.416C6.032 6.92 5.816 6.424 5.816 5.928C5.816 5.608 5.896 5.296 6.056 4.992C6.216 4.672 6.448 4.408 6.752 4.2C7.056 3.976 7.416 3.864 7.832 3.864C7.624 4.12 7.488 4.408 7.424 4.728C7.376 5.048 7.352 5.304 7.352 5.496C7.352 6.024 7.472 6.472 7.712 6.84C7.952 7.208 8.248 7.496 8.6 7.704C8.904 6.792 9.224 5.92 9.56 5.088C9.912 4.24 10.296 3.496 10.712 2.856C11.144 2.2 11.616 1.68 12.128 1.296C12.656 0.911999 13.248 0.719999 13.904 0.719999C14.272 0.719999 14.656 0.799999 15.056 0.959999C15.472 1.104 15.824 1.36 16.112 1.728C16.416 2.096 16.568 2.624 16.568 3.312C16.568 3.856 16.448 4.44 16.208 5.064C15.984 5.688 15.624 6.288 15.128 6.864C14.632 7.424 13.992 7.896 13.208 8.28C12.44 8.648 11.504 8.848 10.4 8.88C10.368 8.88 10.328 8.88 10.28 8.88C10.248 8.88 10.216 8.88 10.184 8.88C9.88 9.808 9.56 10.744 9.224 11.688C8.888 12.632 8.528 13.536 8.144 14.4C7.76 15.264 7.344 16.032 6.896 16.704C7.52 16.88 8.208 17.08 8.96 17.304C9.728 17.528 10.488 17.72 11.24 17.88C12.008 18.024 12.68 18.096 13.256 18.096C13.64 18.096 13.992 18.056 14.312 17.976C14.648 17.88 15 17.744 15.368 17.568C15.048 18.464 14.648 19.104 14.168 19.488C13.704 19.888 13.144 20.088 12.488 20.088ZM2.936 18.384C3.352 18.384 3.688 18.288 3.944 18.096C4.2 17.92 4.456 17.696 4.712 17.424C4.216 17.248 3.752 17.104 3.32 16.992C2.888 16.864 2.512 16.8 2.192 16.8C1.888 16.8 1.672 16.856 1.544 16.968C1.4 17.08 1.328 17.216 1.328 17.376C1.328 17.632 1.488 17.864 1.808 18.072C2.128 18.28 2.504 18.384 2.936 18.384ZM10.448 8.088C11.152 8.04 11.776 7.816 12.32 7.416C12.864 7.016 13.328 6.536 13.712 5.976C14.096 5.416 14.384 4.848 14.576 4.272C14.784 3.68 14.888 3.168 14.888 2.736C14.888 2.32 14.808 2.04 14.648 1.896C14.488 1.736 14.304 1.656 14.096 1.656C13.632 1.656 13.192 1.952 12.776 2.544C12.36 3.136 11.96 3.92 11.576 4.896C11.208 5.856 10.832 6.92 10.448 8.088ZM17.9924 19.128C17.4644 19.128 17.0084 18.952 16.6244 18.6C16.2244 18.248 16.0244 17.72 16.0244 17.016C16.0244 16.456 16.1524 15.848 16.4084 15.192C16.6644 14.536 17.0164 13.888 17.4644 13.248C17.9124 12.608 18.4244 12.032 19.0004 11.52C19.5764 10.992 20.1924 10.568 20.8484 10.248C21.5044 9.928 22.1604 9.768 22.8164 9.768C23.5044 9.768 24.0884 9.944 24.5684 10.296C25.0484 10.648 25.2884 11.112 25.2884 11.688C25.2884 12.12 25.1364 12.432 24.8324 12.624C24.5284 12.816 24.1684 12.872 23.7524 12.792C23.7844 12.648 23.8084 12.504 23.8244 12.36C23.8564 12.216 23.8724 12.064 23.8724 11.904C23.8724 11.584 23.8084 11.296 23.6804 11.04C23.5524 10.784 23.2804 10.656 22.8644 10.656C22.4164 10.656 21.9604 10.808 21.4964 11.112C21.0324 11.416 20.5844 11.816 20.1524 12.312C19.7364 12.792 19.3604 13.328 19.0244 13.92C18.6884 14.496 18.4244 15.064 18.2324 15.624C18.0404 16.184 17.9444 16.688 17.9444 17.136C17.9444 17.648 18.1284 17.904 18.4964 17.904C18.8644 17.904 19.2724 17.728 19.7204 17.376C20.1684 17.008 20.6164 16.552 21.0644 16.008C21.5284 15.464 21.9684 14.912 22.3844 14.352C22.8004 13.776 23.1604 13.288 23.4644 12.888C23.5124 12.808 23.5764 12.768 23.6564 12.768C23.7204 12.784 23.8404 12.824 24.0164 12.888C24.2084 12.936 24.3844 13.016 24.5444 13.128C24.7044 13.24 24.7844 13.384 24.7844 13.56C24.7844 13.72 24.7124 13.928 24.5684 14.184C24.4404 14.424 24.2804 14.696 24.0884 15C23.9124 15.288 23.7524 15.584 23.6084 15.888C23.4804 16.176 23.4164 16.456 23.4164 16.728C23.4164 16.936 23.4724 17.136 23.5844 17.328C23.6964 17.504 23.8804 17.592 24.1364 17.592C24.5204 17.592 25.0564 17.312 25.7444 16.752C26.4484 16.176 27.1604 15.208 27.8804 13.848L28.3364 14.304C27.9524 15.168 27.4884 15.936 26.9444 16.608C26.4164 17.264 25.8564 17.776 25.2644 18.144C24.6724 18.528 24.0724 18.72 23.4644 18.72C22.8084 18.72 22.3204 18.512 22.0004 18.096C21.6804 17.68 21.5044 17.232 21.4724 16.752C21.4724 16.72 21.4724 16.696 21.4724 16.68C21.4724 16.664 21.4724 16.648 21.4724 16.632C20.8324 17.4 20.2404 18.008 19.6964 18.456C19.1684 18.904 18.6004 19.128 17.9924 19.128ZM29.1365 18.72C28.5925 18.72 28.1445 18.472 27.7925 17.976C27.4565 17.464 27.2885 16.88 27.2885 16.224C27.2885 15.776 27.3605 15.248 27.5045 14.64C27.6485 14.032 27.8325 13.44 28.0565 12.864C28.2965 12.288 28.5365 11.808 28.7765 11.424C29.0325 11.04 29.2645 10.848 29.4725 10.848C29.5845 10.848 29.7525 10.912 29.9765 11.04C30.2165 11.152 30.4245 11.296 30.6005 11.472C30.4245 11.728 30.2085 12.12 29.9525 12.648C29.7125 13.176 29.4965 13.744 29.3045 14.352C29.1125 14.96 29.0165 15.512 29.0165 16.008C29.0165 16.072 29.0245 16.224 29.0405 16.464C29.0725 16.704 29.1365 16.928 29.2325 17.136C29.3285 17.344 29.4965 17.448 29.7365 17.448C30.0085 17.448 30.2965 17.304 30.6005 17.016C30.9205 16.712 31.2405 16.328 31.5605 15.864C31.8965 15.384 32.2165 14.872 32.5205 14.328C32.8405 13.784 33.1205 13.256 33.3605 12.744C33.6165 12.232 33.8245 11.8 33.9845 11.448C34.1285 11.464 34.3125 11.504 34.5365 11.568C34.7765 11.632 34.9845 11.72 35.1605 11.832C35.3365 11.928 35.4245 12.072 35.4245 12.264C35.4245 12.312 35.3445 12.512 35.1845 12.864C35.0405 13.2 34.8645 13.608 34.6565 14.088C34.4645 14.568 34.2885 15.064 34.1285 15.576C33.9845 16.072 33.9125 16.512 33.9125 16.896C33.9125 17.12 33.9525 17.32 34.0325 17.496C34.1285 17.656 34.3045 17.736 34.5605 17.736C34.8965 17.736 35.2965 17.584 35.7605 17.28C36.2245 16.976 36.7045 16.536 37.2005 15.96C37.6965 15.384 38.1365 14.696 38.5205 13.896L38.8805 14.184C38.5285 15.048 38.0725 15.824 37.5125 16.512C36.9525 17.2 36.3525 17.736 35.7125 18.12C35.0725 18.52 34.4485 18.72 33.8405 18.72C33.3765 18.72 33.0245 18.608 32.7845 18.384C32.5605 18.176 32.4085 17.904 32.3285 17.568C32.2485 17.216 32.2005 16.864 32.1845 16.512C32.1845 16.432 32.1845 16.352 32.1845 16.272C32.1845 16.176 32.1845 16.096 32.1845 16.032C31.9125 16.464 31.6165 16.888 31.2965 17.304C30.9765 17.704 30.6325 18.04 30.2645 18.312C29.9125 18.584 29.5365 18.72 29.1365 18.72ZM42.3463 18.624C41.7543 18.624 41.2743 18.464 40.9062 18.144C40.5383 17.84 40.3543 17.424 40.3543 16.896C40.3543 16.448 40.4663 15.968 40.6903 15.456C40.9143 14.944 41.1383 14.44 41.3623 13.944C41.6023 13.448 41.7223 13.008 41.7223 12.624C41.7223 12.256 41.6023 11.952 41.3623 11.712C41.1223 11.456 40.8423 11.248 40.5223 11.088C40.1703 11.968 39.7703 12.824 39.3223 13.656C38.8903 14.472 38.5383 15.112 38.2663 15.576L37.9062 14.88C38.1303 14.464 38.4263 13.872 38.7943 13.104C39.1623 12.336 39.5143 11.48 39.8503 10.536C39.6903 10.376 39.6103 10.16 39.6103 9.888C39.6103 9.472 39.7383 9.08 39.9943 8.712C40.2503 8.344 40.4983 8.16 40.7383 8.16C40.9303 8.16 41.0663 8.272 41.1463 8.496C41.2423 8.704 41.2903 8.848 41.2903 8.928C41.2903 9.008 41.2503 9.152 41.1703 9.36C41.1063 9.568 41.0583 9.72 41.0263 9.816C41.0423 9.992 41.1783 10.168 41.4342 10.344C41.7063 10.504 42.0103 10.696 42.3463 10.92C42.6823 11.144 42.9783 11.424 43.2343 11.76C43.4903 12.096 43.6183 12.52 43.6183 13.032C43.6183 13.496 43.5143 13.968 43.3063 14.448C43.0983 14.928 42.8903 15.376 42.6823 15.792C42.4743 16.208 42.3703 16.568 42.3703 16.872C42.3703 17.096 42.4263 17.248 42.5383 17.328C42.6663 17.392 42.8103 17.424 42.9703 17.424C43.3543 17.424 43.7543 17.312 44.1703 17.088C44.5863 16.848 44.9943 16.544 45.3943 16.176C45.7943 15.808 46.1463 15.424 46.4503 15.024C46.7543 14.608 46.9863 14.232 47.1463 13.896L47.7223 14.328C47.4183 15.016 46.9783 15.696 46.4023 16.368C45.8263 17.024 45.1863 17.568 44.4823 18C43.7783 18.416 43.0663 18.624 42.3463 18.624ZM49.409 19.056C48.385 19.056 47.593 18.776 47.033 18.216C46.489 17.672 46.217 16.984 46.217 16.152C46.217 15.448 46.393 14.704 46.745 13.92C47.113 13.12 47.601 12.376 48.209 11.688C48.817 10.984 49.489 10.416 50.225 9.984C50.961 9.552 51.697 9.336 52.433 9.336C52.849 9.336 53.241 9.448 53.609 9.672C53.993 9.88 54.185 10.304 54.185 10.944C54.185 11.552 54.009 12.12 53.657 12.648C53.305 13.176 52.833 13.648 52.241 14.064C51.649 14.48 50.993 14.824 50.273 15.096C49.569 15.352 48.857 15.52 48.137 15.6C48.121 15.664 48.105 15.736 48.089 15.816C48.089 15.88 48.089 15.992 48.089 16.152C48.089 16.232 48.097 16.376 48.113 16.584C48.145 16.776 48.217 16.984 48.329 17.208C48.441 17.432 48.625 17.624 48.881 17.784C49.137 17.944 49.489 18.024 49.937 18.024C50.609 18.024 51.281 17.84 51.953 17.472C52.641 17.088 53.281 16.584 53.873 15.96C54.481 15.336 54.985 14.64 55.385 13.872L55.865 14.256C55.433 15.216 54.873 16.056 54.185 16.776C53.513 17.496 52.761 18.056 51.929 18.456C51.113 18.856 50.273 19.056 49.409 19.056ZM48.401 14.712C48.817 14.664 49.281 14.52 49.793 14.28C50.305 14.04 50.793 13.736 51.257 13.368C51.737 13 52.129 12.6 52.433 12.168C52.737 11.72 52.889 11.272 52.889 10.824C52.889 10.648 52.857 10.528 52.793 10.464C52.729 10.4 52.625 10.368 52.481 10.368C52.113 10.368 51.729 10.504 51.329 10.776C50.929 11.032 50.537 11.376 50.153 11.808C49.769 12.224 49.425 12.688 49.121 13.2C48.817 13.712 48.577 14.216 48.401 14.712ZM56.1487 19.128C55.6207 19.128 55.1647 18.952 54.7807 18.6C54.3807 18.248 54.1807 17.72 54.1807 17.016C54.1807 16.456 54.3087 15.848 54.5647 15.192C54.8207 14.536 55.1727 13.888 55.6207 13.248C56.0687 12.608 56.5807 12.032 57.1567 11.52C57.7327 10.992 58.3487 10.568 59.0047 10.248C59.6607 9.928 60.3167 9.768 60.9727 9.768C61.6607 9.768 62.2447 9.944 62.7247 10.296C63.2047 10.648 63.4447 11.112 63.4447 11.688C63.4447 12.12 63.2927 12.432 62.9887 12.624C62.6847 12.816 62.3247 12.872 61.9087 12.792C61.9407 12.648 61.9647 12.504 61.9807 12.36C62.0127 12.216 62.0287 12.064 62.0287 11.904C62.0287 11.584 61.9647 11.296 61.8367 11.04C61.7087 10.784 61.4367 10.656 61.0207 10.656C60.5727 10.656 60.1167 10.808 59.6527 11.112C59.1887 11.416 58.7407 11.816 58.3087 12.312C57.8927 12.792 57.5167 13.328 57.1807 13.92C56.8447 14.496 56.5807 15.064 56.3887 15.624C56.1967 16.184 56.1007 16.688 56.1007 17.136C56.1007 17.648 56.2847 17.904 56.6527 17.904C57.0207 17.904 57.4287 17.728 57.8767 17.376C58.3247 17.008 58.7727 16.552 59.2207 16.008C59.6847 15.464 60.1247 14.912 60.5407 14.352C60.9567 13.776 61.3167 13.288 61.6207 12.888C61.6687 12.808 61.7327 12.768 61.8127 12.768C61.8767 12.784 61.9967 12.824 62.1727 12.888C62.3647 12.936 62.5407 13.016 62.7007 13.128C62.8607 13.24 62.9407 13.384 62.9407 13.56C62.9407 13.72 62.8687 13.928 62.7247 14.184C62.5967 14.424 62.4367 14.696 62.2447 15C62.0687 15.288 61.9087 15.584 61.7647 15.888C61.6367 16.176 61.5727 16.456 61.5727 16.728C61.5727 16.936 61.6287 17.136 61.7407 17.328C61.8527 17.504 62.0367 17.592 62.2927 17.592C62.6767 17.592 63.2127 17.312 63.9007 16.752C64.6047 16.176 65.3167 15.208 66.0367 13.848L66.4927 14.304C66.1087 15.168 65.6447 15.936 65.1007 16.608C64.5727 17.264 64.0127 17.776 63.4207 18.144C62.8287 18.528 62.2287 18.72 61.6207 18.72C60.9647 18.72 60.4767 18.512 60.1567 18.096C59.8367 17.68 59.6607 17.232 59.6287 16.752C59.6287 16.72 59.6287 16.696 59.6287 16.68C59.6287 16.664 59.6287 16.648 59.6287 16.632C58.9887 17.4 58.3967 18.008 57.8527 18.456C57.3247 18.904 56.7567 19.128 56.1487 19.128ZM67.6528 19.104C66.9488 19.104 66.3808 18.896 65.9488 18.48C65.5168 18.064 65.3007 17.432 65.3007 16.584C65.3007 15.928 65.4207 15.112 65.6608 14.136C65.9168 13.16 66.2368 12.152 66.6208 11.112C66.5088 11.08 66.3728 11.056 66.2128 11.04C66.0688 11.008 65.9248 10.96 65.7808 10.896V10.152C66.0368 10.184 66.2448 10.208 66.4048 10.224C66.5808 10.24 66.7568 10.256 66.9328 10.272C67.2688 9.424 67.6288 8.608 68.0128 7.824C68.4128 7.024 68.8048 6.312 69.1888 5.688C69.5888 5.064 69.9648 4.576 70.3168 4.224C70.6688 3.856 70.9808 3.672 71.2528 3.672C71.4128 3.672 71.5648 3.736 71.7088 3.864C71.8528 3.976 71.9248 4.144 71.9248 4.368C71.9248 4.688 71.7568 5.144 71.4208 5.736C71.1008 6.328 70.7008 7.024 70.2208 7.824C69.7408 8.608 69.2768 9.448 68.8288 10.344C68.9568 10.344 69.0848 10.344 69.2128 10.344C69.3408 10.344 69.4608 10.344 69.5728 10.344C70.2768 10.344 70.9088 10.336 71.4688 10.32C72.0448 10.288 72.6288 10.24 73.2208 10.176V10.968C72.3408 11.048 71.5328 11.112 70.7968 11.16C70.0608 11.208 69.3568 11.24 68.6848 11.256C68.6368 11.256 68.5888 11.256 68.5408 11.256C68.4928 11.256 68.4448 11.256 68.3968 11.256C68.0608 12.04 67.7648 12.848 67.5088 13.68C67.2688 14.496 67.1488 15.296 67.1488 16.08C67.1488 16.736 67.2528 17.2 67.4608 17.472C67.6688 17.744 67.9968 17.88 68.4448 17.88C69.2448 17.88 70.0608 17.52 70.8928 16.8C71.7408 16.064 72.4768 15.072 73.1008 13.824L73.4368 14.064C73.0208 15.008 72.5008 15.864 71.8768 16.632C71.2688 17.4 70.6048 18 69.8848 18.432C69.1648 18.88 68.4208 19.104 67.6528 19.104ZM75.1668 19.056C74.1428 19.056 73.3508 18.776 72.7908 18.216C72.2468 17.672 71.9748 16.984 71.9748 16.152C71.9748 15.448 72.1508 14.704 72.5028 13.92C72.8708 13.12 73.3588 12.376 73.9668 11.688C74.5748 10.984 75.2468 10.416 75.9828 9.984C76.7188 9.552 77.4548 9.336 78.1908 9.336C78.6068 9.336 78.9988 9.448 79.3668 9.672C79.7508 9.88 79.9428 10.304 79.9428 10.944C79.9428 11.552 79.7668 12.12 79.4148 12.648C79.0628 13.176 78.5908 13.648 77.9988 14.064C77.4068 14.48 76.7508 14.824 76.0308 15.096C75.3268 15.352 74.6148 15.52 73.8948 15.6C73.8788 15.664 73.8628 15.736 73.8468 15.816C73.8468 15.88 73.8468 15.992 73.8468 16.152C73.8468 16.232 73.8548 16.376 73.8708 16.584C73.9028 16.776 73.9748 16.984 74.0868 17.208C74.1988 17.432 74.3828 17.624 74.6388 17.784C74.8948 17.944 75.2468 18.024 75.6948 18.024C76.3668 18.024 77.0388 17.84 77.7108 17.472C78.3988 17.088 79.0388 16.584 79.6308 15.96C80.2388 15.336 80.7428 14.64 81.1428 13.872L81.6228 14.256C81.1908 15.216 80.6308 16.056 79.9428 16.776C79.2708 17.496 78.5188 18.056 77.6868 18.456C76.8708 18.856 76.0308 19.056 75.1668 19.056ZM74.1588 14.712C74.5748 14.664 75.0388 14.52 75.5508 14.28C76.0628 14.04 76.5508 13.736 77.0148 13.368C77.4948 13 77.8868 12.6 78.1908 12.168C78.4948 11.72 78.6468 11.272 78.6468 10.824C78.6468 10.648 78.6148 10.528 78.5508 10.464C78.4868 10.4 78.3828 10.368 78.2388 10.368C77.8708 10.368 77.4868 10.504 77.0868 10.776C76.6868 11.032 76.2948 11.376 75.9108 11.808C75.5268 12.224 75.1828 12.688 74.8788 13.2C74.5748 13.712 74.3348 14.216 74.1588 14.712Z" fill="#323232"/>
</svg>
